<?xml version="1.0" encoding="iso-8859-1"?>
<!-- Generator: Adobe Illustrator 18.1.1, SVG Export Plug-In . SVG Version: 6.00 Build 0)  -->
<svg version="1.1" id="Capa_1" xmlns="http://www.w3.org/2000/svg" xmlns:xlink="http://www.w3.org/1999/xlink" x="0px" y="0px"
	 viewBox="0 0 48.666 48.666" style="enable-background:new 0 0 48.666 48.666;" xml:space="preserve">
<g>
	<g>
		<path style="fill:#010002;" d="M24.333,6.32C10.894,6.32,0,14.792,0,25.243c0,6.447,9.1,6.478,16.681,5.384
			c5.62-0.811,10.052,1.354,10.052,5.656s4.753,7.643,9.917,5.282c7.19-3.288,12.016-9.366,12.016-16.322
			C48.666,14.792,37.771,6.32,24.333,6.32z M8.996,20.389c-1.278,0-2.313-1.036-2.313-2.313c0-1.278,1.036-2.313,2.313-2.313
			s2.313,1.036,2.313,2.313S10.273,20.389,8.996,20.389z M16.564,15.414c-1.278,0-2.313-1.036-2.313-2.313
			c0-1.278,1.036-2.313,2.313-2.313c1.278,0,2.313,1.036,2.313,2.313C18.878,14.378,17.842,15.414,16.564,15.414z M26.646,14.6
			c-1.278,0-2.313-1.036-2.313-2.313c0-1.278,1.036-2.313,2.313-2.313c1.278,0,2.313,1.036,2.313,2.313S27.924,14.6,26.646,14.6z
			 M34.957,37.648c-2.116,0-3.831-1.715-3.831-3.831s1.715-3.831,3.831-3.831s3.831,1.715,3.831,3.831
			C38.788,35.931,37.073,37.648,34.957,37.648z M36.475,17.726c-1.277,0-2.312-1.036-2.312-2.313s1.035-2.313,2.312-2.313
			c1.278,0,2.313,1.036,2.313,2.313C38.788,16.691,37.752,17.726,36.475,17.726z M41.102,26.647c-1.277,0-2.312-1.036-2.312-2.313
			c0-1.278,1.036-2.313,2.312-2.313c1.278,0,2.313,1.036,2.313,2.313S42.379,26.647,41.102,26.647z"/>
	</g>
</g>
<g>
</g>
<g>
</g>
<g>
</g>
<g>
</g>
<g>
</g>
<g>
</g>
<g>
</g>
<g>
</g>
<g>
</g>
<g>
</g>
<g>
</g>
<g>
</g>
<g>
</g>
<g>
</g>
<g>
</g>
</svg>
