<?xml version="1.0" encoding="iso-8859-1"?>
<!-- Generator: Adobe Illustrator 16.0.0, SVG Export Plug-In . SVG Version: 6.00 Build 0)  -->
<!DOCTYPE svg PUBLIC "-//W3C//DTD SVG 1.1//EN" "http://www.w3.org/Graphics/SVG/1.1/DTD/svg11.dtd">
<svg version="1.1" id="Capa_1" xmlns="http://www.w3.org/2000/svg" xmlns:xlink="http://www.w3.org/1999/xlink" x="0px" y="0px"
	 width="612px" height="612px" viewBox="0 0 612 612" style="enable-background:new 0 0 612 612;" xml:space="preserve">
<g>
	<g>
		<g>
			<g>
				<path d="M95.504,214.546C42.844,214.546,0,171.708,0,119.048c0-52.672,42.844-95.516,95.504-95.516
					c52.672,0,95.516,42.85,95.516,95.516C191.02,171.708,148.176,214.546,95.504,214.546z M95.504,53.011
					c-36.406,0-66.025,29.62-66.025,66.038c0,36.406,29.62,66.02,66.025,66.02c36.417,0,66.038-29.62,66.038-66.02
					C161.542,82.63,131.921,53.011,95.504,53.011z"/>
				<path d="M516.484,214.546c-52.666,0-95.504-42.844-95.504-95.498c-0.006-52.678,42.838-95.528,95.504-95.528
					c52.672,0,95.516,42.85,95.516,95.528C612,171.708,569.15,214.546,516.484,214.546z M516.484,53
					c-36.406,0-66.025,29.626-66.025,66.049c0,36.406,29.619,66.02,66.025,66.02c36.417,0,66.037-29.62,66.037-66.02
					C582.521,82.625,552.896,53,516.484,53z"/>
			</g>
			<path d="M306.003,588.479c-52.672,0-95.521-42.844-95.521-95.504c0-52.666,42.855-95.504,95.521-95.504
				c52.66,0,95.498,42.844,95.498,95.504C401.507,545.642,358.663,588.479,306.003,588.479z M306.003,426.949
				c-36.417,0-66.043,29.62-66.043,66.026c0,36.405,29.626,66.025,66.043,66.025c36.406,0,66.021-29.626,66.021-66.025
				C372.022,456.575,342.409,426.949,306.003,426.949z"/>
			<path d="M345.599,437.333c-2.452,0-4.935-0.613-7.223-1.894c-7.093-3.997-9.604-12.981-5.612-20.075L464.019,182.19
				c3.997-7.098,12.982-9.598,20.075-5.613c7.092,3.998,9.604,12.982,5.612,20.075L358.457,429.827
				C355.751,434.632,350.745,437.333,345.599,437.333z"/>
			<path d="M266.378,437.314c-5.146,0-10.152-2.7-12.858-7.506L122.288,196.666c-3.992-7.093-1.48-16.083,5.613-20.075
				c7.086-3.974,16.083-1.485,20.075,5.613l131.231,233.137c3.992,7.093,1.48,16.084-5.612,20.074
				C271.313,436.701,268.831,437.314,266.378,437.314z"/>
		</g>
	</g>
</g>
<g>
</g>
<g>
</g>
<g>
</g>
<g>
</g>
<g>
</g>
<g>
</g>
<g>
</g>
<g>
</g>
<g>
</g>
<g>
</g>
<g>
</g>
<g>
</g>
<g>
</g>
<g>
</g>
<g>
</g>
</svg>
